# xmcd
#
# Track frame offsets: 
#        180
#        22139
#        44112
#        75917
#
# Disc length: 1149 seconds
#
# Revision: 0
# Processed by: cddbd v1.5.2PL0 Copyright (c) Steve Scherf et al.
# Submitted via: ExactAudioCopy v1.0b2
#
DISCID=2b047b04
DTITLE=Messiah - The Ballad Of Jesus
DYEAR=1994
DGENRE=Death Metal
TTITLE0=The Ballad Of Jesus - MetalDance - Mix
TTITLE1=The Ballad Of Jesus - Neverland - Mix
TTITLE2=The Ballad Of Jesus - Kruzzi - Mix
TTITLE3=The Ballad Of Jesus - LP - Version
EXTD=
EXTT0=
EXTT1=
EXTT2=
EXTT3=
PLAYORDER=
